# xmcd CD database file
#
# Track frame offsets:
#	150
#	25417
#	46180
#	69403
#	101294
#	126995
#	152509
#	177623
#	207782
#	236414
#
# Disc length: 3465 seconds
#
# Revision: 0
# Processed by: cddbd v1.5.2PL0 Copyright (c) Steve Scherf et al.
# Submitted via: CDex 1.70beta3
#
DISCID=7e0d870a
DTITLE=Kondo IMA 21 - Space Children
DYEAR=2018
DGENRE=Jazz
TTITLE0=Rising Door
TTITLE1=Strange Wind
TTITLE2=Sea of Galilee ~space children~
TTITLE3=Ascension
TTITLE4=Peaceful Sky
TTITLE5=The Quake
TTITLE6=Nobody can stop that
TTITLE7=Open and Deep
TTITLE8=Cosmic Nature
TTITLE9=Friendship
EXTD=YEAR: 2018
EXTT0=
EXTT1=
EXTT2=
EXTT3=
EXTT4=
EXTT5=
EXTT6=
EXTT7=
EXTT8=
EXTT9=
PLAYORDER=
